# xmcd CD database file
#
# Track frame offsets:
#	150
#	14297
#	26948
#	38388
#	51404
#	65650
#	75431
#	86529
#	97934
#	106852
#	119725
#	132849
#
# Disc length: 1923 seconds
#
# Revision: 0
# Processed by: cddbd v1.5.2PL0 Copyright (c) Steve Scherf et al.
# Submitted via: CDex 1.51
#
DISCID=9407810c
DTITLE=Tito Rodriguez - En Tropicana
DYEAR=1900
DGENRE=Salsa
TTITLE0=Ay Que Frio
TTITLE1=La Cosquillita
TTITLE2=La La Cha Cha Cha
TTITLE3=Tengo Una Pelota
TTITLE4=Mirando El Cha Cha Cha
TTITLE5=Mambo No. 5
TTITLE6=Canallon
TTITLE7=Dulce Y Sabroso
TTITLE8=Acapulco Cha Cha Cha
TTITLE9=Concierto Para Cha Cha Cha
TTITLE10=Cha Cha Cha De Felicidad
TTITLE11=Mambo Tropicana
EXTD=
EXTT0=
EXTT1=
EXTT2=
EXTT3=
EXTT4=
EXTT5=
EXTT6=
EXTT7=
EXTT8=
EXTT9=
EXTT10=
EXTT11=
PLAYORDER=
